<mxfile host="app.diagrams.net" agent="Mozilla/5.0 (Windows NT 10.0; Win64; x64) AppleWebKit/537.36 (KHTML, like Gecko) Chrome/131.0.0.0 Safari/537.36" version="26.0.2">
  <diagram name="Page-1" id="tbhkFq_UPLMZTOYzEXcT">
    <mxGraphModel dx="1032" dy="501" grid="1" gridSize="10" guides="1" tooltips="1" connect="1" arrows="1" fold="1" page="1" pageScale="1" pageWidth="1169" pageHeight="827" math="0" shadow="0">
      <root>
        <mxCell id="0" />
        <mxCell id="1" parent="0" />
        <mxCell id="ydUf7Sg9tbZ3Hj5Wce_S-1" value="&lt;font style=&quot;font-size: 14px;&quot;&gt;&lt;b&gt;Satellite Images&lt;/b&gt;&lt;/font&gt;&lt;div&gt;&lt;font size=&quot;3&quot;&gt;&lt;b&gt;1984,2004,2014,2024&lt;/b&gt;&lt;/font&gt;&lt;/div&gt;" style="strokeWidth=2;html=1;shape=mxgraph.flowchart.multi-document;whiteSpace=wrap;" vertex="1" parent="1">
          <mxGeometry x="240" y="90" width="220" height="70" as="geometry" />
        </mxCell>
        <mxCell id="ydUf7Sg9tbZ3Hj5Wce_S-3" value="&lt;font style=&quot;font-size: 14px;&quot;&gt;Distance to Road&lt;/font&gt;" style="rounded=0;whiteSpace=wrap;html=1;" vertex="1" parent="1">
          <mxGeometry x="722.5" y="90" width="80" height="40" as="geometry" />
        </mxCell>
        <mxCell id="ydUf7Sg9tbZ3Hj5Wce_S-4" value="&lt;font style=&quot;font-size: 14px;&quot;&gt;Distance to River&lt;/font&gt;" style="rounded=0;whiteSpace=wrap;html=1;" vertex="1" parent="1">
          <mxGeometry x="825" y="90" width="70" height="40" as="geometry" />
        </mxCell>
        <mxCell id="ydUf7Sg9tbZ3Hj5Wce_S-5" value="&lt;font style=&quot;font-size: 14px;&quot;&gt;Road Density&lt;/font&gt;" style="rounded=0;whiteSpace=wrap;html=1;" vertex="1" parent="1">
          <mxGeometry x="720" y="140" width="80" height="40" as="geometry" />
        </mxCell>
        <mxCell id="ydUf7Sg9tbZ3Hj5Wce_S-7" value="&lt;font style=&quot;font-size: 14px;&quot;&gt;Slope&lt;/font&gt;" style="rounded=0;whiteSpace=wrap;html=1;" vertex="1" parent="1">
          <mxGeometry x="820" y="140" width="75" height="30" as="geometry" />
        </mxCell>
        <mxCell id="ydUf7Sg9tbZ3Hj5Wce_S-8" value="&lt;font style=&quot;font-size: 14px;&quot;&gt;Aspect&lt;/font&gt;" style="rounded=0;whiteSpace=wrap;html=1;" vertex="1" parent="1">
          <mxGeometry x="720" y="190" width="85" height="30" as="geometry" />
        </mxCell>
        <mxCell id="ydUf7Sg9tbZ3Hj5Wce_S-9" value="&lt;font style=&quot;font-size: 14px;&quot;&gt;Elevation&lt;/font&gt;" style="rounded=0;whiteSpace=wrap;html=1;" vertex="1" parent="1">
          <mxGeometry x="825" y="180" width="70" height="40" as="geometry" />
        </mxCell>
        <mxCell id="ydUf7Sg9tbZ3Hj5Wce_S-63" style="edgeStyle=orthogonalEdgeStyle;rounded=0;orthogonalLoop=1;jettySize=auto;html=1;exitX=0;exitY=0.5;exitDx=0;exitDy=0;entryX=0.5;entryY=0;entryDx=0;entryDy=0;" edge="1" parent="1" source="ydUf7Sg9tbZ3Hj5Wce_S-10" target="ydUf7Sg9tbZ3Hj5Wce_S-11">
          <mxGeometry relative="1" as="geometry" />
        </mxCell>
        <mxCell id="ydUf7Sg9tbZ3Hj5Wce_S-10" value="" style="rounded=1;whiteSpace=wrap;html=1;fillColor=none;" vertex="1" parent="1">
          <mxGeometry x="710" y="70" width="200" height="180" as="geometry" />
        </mxCell>
        <mxCell id="ydUf7Sg9tbZ3Hj5Wce_S-64" style="edgeStyle=orthogonalEdgeStyle;rounded=0;orthogonalLoop=1;jettySize=auto;html=1;exitX=0.5;exitY=1;exitDx=0;exitDy=0;" edge="1" parent="1" source="ydUf7Sg9tbZ3Hj5Wce_S-11" target="ydUf7Sg9tbZ3Hj5Wce_S-14">
          <mxGeometry relative="1" as="geometry">
            <Array as="points">
              <mxPoint x="540" y="260" />
            </Array>
          </mxGeometry>
        </mxCell>
        <mxCell id="ydUf7Sg9tbZ3Hj5Wce_S-11" value="&lt;font style=&quot;font-size: 14px;&quot;&gt;&lt;b&gt;CA-Markov&lt;/b&gt;&lt;/font&gt;" style="rounded=0;whiteSpace=wrap;html=1;" vertex="1" parent="1">
          <mxGeometry x="490" y="200" width="120" height="60" as="geometry" />
        </mxCell>
        <mxCell id="ydUf7Sg9tbZ3Hj5Wce_S-12" value="" style="rounded=1;whiteSpace=wrap;html=1;fillColor=none;" vertex="1" parent="1">
          <mxGeometry x="450" y="310" width="490" height="250" as="geometry" />
        </mxCell>
        <mxCell id="ydUf7Sg9tbZ3Hj5Wce_S-14" value="&lt;b&gt;&lt;font style=&quot;font-size: 14px;&quot;&gt;Land use&amp;nbsp;&lt;/font&gt;&lt;/b&gt;&lt;div&gt;&lt;b&gt;&lt;font style=&quot;font-size: 14px;&quot;&gt;change&lt;/font&gt;&lt;font style=&quot;font-size: 14px;&quot;&gt;&amp;nbsp;&lt;/font&gt;&lt;/b&gt;&lt;div&gt;&lt;font style=&quot;font-size: 14px;&quot;&gt;&lt;b&gt;Modeler&lt;/b&gt;&lt;/font&gt;&lt;/div&gt;&lt;/div&gt;" style="strokeWidth=1;html=1;shape=mxgraph.flowchart.direct_data;whiteSpace=wrap;" vertex="1" parent="1">
          <mxGeometry x="460" y="330" width="160" height="60" as="geometry" />
        </mxCell>
        <mxCell id="ydUf7Sg9tbZ3Hj5Wce_S-15" value="&lt;font style=&quot;font-size: 14px;&quot;&gt;Change Analysis&lt;/font&gt;" style="rounded=0;whiteSpace=wrap;html=1;" vertex="1" parent="1">
          <mxGeometry x="670" y="330" width="120" height="30" as="geometry" />
        </mxCell>
        <mxCell id="ydUf7Sg9tbZ3Hj5Wce_S-19" value="&lt;font style=&quot;font-size: 14px;&quot;&gt;Transition Potential&lt;/font&gt;" style="rounded=0;whiteSpace=wrap;html=1;" vertex="1" parent="1">
          <mxGeometry x="670" y="370" width="120" height="40" as="geometry" />
        </mxCell>
        <mxCell id="ydUf7Sg9tbZ3Hj5Wce_S-20" value="&lt;font style=&quot;font-size: 14px;&quot;&gt;Change Prediction&lt;/font&gt;" style="rounded=0;whiteSpace=wrap;html=1;" vertex="1" parent="1">
          <mxGeometry x="670" y="424" width="120" height="40" as="geometry" />
        </mxCell>
        <mxCell id="ydUf7Sg9tbZ3Hj5Wce_S-21" value="&lt;font style=&quot;font-size: 14px;&quot;&gt;Validation 2022&lt;/font&gt;" style="rounded=0;whiteSpace=wrap;html=1;" vertex="1" parent="1">
          <mxGeometry x="497.5" y="502.5" width="120" height="40" as="geometry" />
        </mxCell>
        <mxCell id="ydUf7Sg9tbZ3Hj5Wce_S-22" value="&lt;font style=&quot;font-size: 14px;&quot;&gt;Predicted&lt;/font&gt;" style="rounded=0;whiteSpace=wrap;html=1;" vertex="1" parent="1">
          <mxGeometry x="650" y="502.5" width="120" height="40" as="geometry" />
        </mxCell>
        <mxCell id="ydUf7Sg9tbZ3Hj5Wce_S-23" value="&lt;span style=&quot;font-size: 14px;&quot;&gt;LULC 2022&lt;/span&gt;" style="rounded=0;whiteSpace=wrap;html=1;" vertex="1" parent="1">
          <mxGeometry x="830" y="398" width="90" height="26" as="geometry" />
        </mxCell>
        <mxCell id="ydUf7Sg9tbZ3Hj5Wce_S-24" value="&lt;span style=&quot;font-size: 14px;&quot;&gt;LULC 2030&lt;/span&gt;" style="rounded=0;whiteSpace=wrap;html=1;" vertex="1" parent="1">
          <mxGeometry x="830" y="430" width="90" height="27" as="geometry" />
        </mxCell>
        <mxCell id="ydUf7Sg9tbZ3Hj5Wce_S-25" value="&lt;span style=&quot;font-size: 14px;&quot;&gt;LULC 2040&lt;/span&gt;" style="rounded=0;whiteSpace=wrap;html=1;" vertex="1" parent="1">
          <mxGeometry x="830" y="464" width="90" height="26" as="geometry" />
        </mxCell>
        <mxCell id="ydUf7Sg9tbZ3Hj5Wce_S-26" value="&lt;span style=&quot;font-size: 14px;&quot;&gt;LULC 2050&lt;/span&gt;" style="rounded=0;whiteSpace=wrap;html=1;" vertex="1" parent="1">
          <mxGeometry x="830" y="497" width="90" height="26" as="geometry" />
        </mxCell>
        <mxCell id="ydUf7Sg9tbZ3Hj5Wce_S-27" value="&lt;font style=&quot;font-size: 14px;&quot;&gt;Images Preprocessing&lt;/font&gt;" style="rounded=0;whiteSpace=wrap;html=1;" vertex="1" parent="1">
          <mxGeometry x="260" y="185" width="130" height="40" as="geometry" />
        </mxCell>
        <mxCell id="ydUf7Sg9tbZ3Hj5Wce_S-28" value="&lt;font style=&quot;font-size: 14px;&quot;&gt;Image classification&lt;/font&gt;" style="rounded=0;whiteSpace=wrap;html=1;" vertex="1" parent="1">
          <mxGeometry x="260" y="260" width="100" height="40" as="geometry" />
        </mxCell>
        <mxCell id="ydUf7Sg9tbZ3Hj5Wce_S-29" value="&lt;font style=&quot;font-size: 14px;&quot;&gt;Accuracy Assessment&lt;/font&gt;" style="rounded=0;whiteSpace=wrap;html=1;" vertex="1" parent="1">
          <mxGeometry x="100" y="190" width="100" height="40" as="geometry" />
        </mxCell>
        <mxCell id="ydUf7Sg9tbZ3Hj5Wce_S-53" style="edgeStyle=orthogonalEdgeStyle;rounded=0;orthogonalLoop=1;jettySize=auto;html=1;exitX=0;exitY=0.5;exitDx=0;exitDy=0;entryX=1;entryY=0.5;entryDx=0;entryDy=0;" edge="1" parent="1" source="ydUf7Sg9tbZ3Hj5Wce_S-30" target="ydUf7Sg9tbZ3Hj5Wce_S-31">
          <mxGeometry relative="1" as="geometry" />
        </mxCell>
        <mxCell id="ydUf7Sg9tbZ3Hj5Wce_S-30" value="&lt;font style=&quot;font-size: 14px;&quot;&gt;LULC&lt;/font&gt;&lt;div&gt;&lt;span style=&quot;font-size: 14px;&quot;&gt;1984,2004,2014&lt;/span&gt;&lt;/div&gt;" style="rounded=0;whiteSpace=wrap;html=1;" vertex="1" parent="1">
          <mxGeometry x="247.5" y="330" width="115" height="40" as="geometry" />
        </mxCell>
        <mxCell id="ydUf7Sg9tbZ3Hj5Wce_S-31" value="&lt;span style=&quot;font-size: 14px;&quot;&gt;Change Detection&lt;/span&gt;" style="rounded=0;whiteSpace=wrap;html=1;" vertex="1" parent="1">
          <mxGeometry x="95" y="330" width="110" height="40" as="geometry" />
        </mxCell>
        <mxCell id="ydUf7Sg9tbZ3Hj5Wce_S-54" style="edgeStyle=orthogonalEdgeStyle;rounded=0;orthogonalLoop=1;jettySize=auto;html=1;exitX=0;exitY=0.25;exitDx=0;exitDy=0;entryX=0.5;entryY=0;entryDx=0;entryDy=0;" edge="1" parent="1" source="ydUf7Sg9tbZ3Hj5Wce_S-32" target="ydUf7Sg9tbZ3Hj5Wce_S-33">
          <mxGeometry relative="1" as="geometry" />
        </mxCell>
        <mxCell id="ydUf7Sg9tbZ3Hj5Wce_S-32" value="&lt;span style=&quot;font-size: 14px;&quot;&gt;LULC 2024&lt;/span&gt;" style="rounded=0;whiteSpace=wrap;html=1;" vertex="1" parent="1">
          <mxGeometry x="250" y="398" width="110" height="40" as="geometry" />
        </mxCell>
        <mxCell id="ydUf7Sg9tbZ3Hj5Wce_S-33" value="&lt;span style=&quot;font-size: 14px;&quot;&gt;Distance to Agriculture&lt;/span&gt;" style="rounded=0;whiteSpace=wrap;html=1;" vertex="1" parent="1">
          <mxGeometry x="100" y="470" width="110" height="40" as="geometry" />
        </mxCell>
        <mxCell id="ydUf7Sg9tbZ3Hj5Wce_S-34" value="&lt;span style=&quot;font-size: 14px;&quot;&gt;Distance to Agriculture&lt;/span&gt;" style="rounded=0;whiteSpace=wrap;html=1;" vertex="1" parent="1">
          <mxGeometry x="240" y="470" width="110" height="40" as="geometry" />
        </mxCell>
        <mxCell id="ydUf7Sg9tbZ3Hj5Wce_S-37" style="edgeStyle=orthogonalEdgeStyle;rounded=0;orthogonalLoop=1;jettySize=auto;html=1;exitX=0.5;exitY=0.88;exitDx=0;exitDy=0;exitPerimeter=0;entryX=0.704;entryY=0.109;entryDx=0;entryDy=0;entryPerimeter=0;" edge="1" parent="1" source="ydUf7Sg9tbZ3Hj5Wce_S-1" target="ydUf7Sg9tbZ3Hj5Wce_S-27">
          <mxGeometry relative="1" as="geometry" />
        </mxCell>
        <mxCell id="ydUf7Sg9tbZ3Hj5Wce_S-45" style="edgeStyle=orthogonalEdgeStyle;rounded=0;orthogonalLoop=1;jettySize=auto;html=1;exitX=0.5;exitY=1;exitDx=0;exitDy=0;entryX=0.638;entryY=0.123;entryDx=0;entryDy=0;entryPerimeter=0;" edge="1" parent="1" source="ydUf7Sg9tbZ3Hj5Wce_S-27" target="ydUf7Sg9tbZ3Hj5Wce_S-28">
          <mxGeometry relative="1" as="geometry" />
        </mxCell>
        <mxCell id="ydUf7Sg9tbZ3Hj5Wce_S-46" style="edgeStyle=orthogonalEdgeStyle;rounded=0;orthogonalLoop=1;jettySize=auto;html=1;exitX=0.25;exitY=1;exitDx=0;exitDy=0;entryX=0.313;entryY=0.095;entryDx=0;entryDy=0;entryPerimeter=0;" edge="1" parent="1" source="ydUf7Sg9tbZ3Hj5Wce_S-28" target="ydUf7Sg9tbZ3Hj5Wce_S-30">
          <mxGeometry relative="1" as="geometry" />
        </mxCell>
        <mxCell id="ydUf7Sg9tbZ3Hj5Wce_S-47" style="edgeStyle=orthogonalEdgeStyle;rounded=0;orthogonalLoop=1;jettySize=auto;html=1;exitX=0.25;exitY=1;exitDx=0;exitDy=0;entryX=0.196;entryY=-0.022;entryDx=0;entryDy=0;entryPerimeter=0;" edge="1" parent="1" source="ydUf7Sg9tbZ3Hj5Wce_S-30" target="ydUf7Sg9tbZ3Hj5Wce_S-32">
          <mxGeometry relative="1" as="geometry" />
        </mxCell>
        <mxCell id="ydUf7Sg9tbZ3Hj5Wce_S-48" style="edgeStyle=orthogonalEdgeStyle;rounded=0;orthogonalLoop=1;jettySize=auto;html=1;exitX=0.25;exitY=1;exitDx=0;exitDy=0;entryX=0.408;entryY=0.039;entryDx=0;entryDy=0;entryPerimeter=0;" edge="1" parent="1" source="ydUf7Sg9tbZ3Hj5Wce_S-32" target="ydUf7Sg9tbZ3Hj5Wce_S-34">
          <mxGeometry relative="1" as="geometry" />
        </mxCell>
        <mxCell id="ydUf7Sg9tbZ3Hj5Wce_S-50" value="" style="endArrow=classic;html=1;rounded=0;" edge="1" parent="1">
          <mxGeometry width="50" height="50" relative="1" as="geometry">
            <mxPoint x="150" y="310" as="sourcePoint" />
            <mxPoint x="280" y="310" as="targetPoint" />
          </mxGeometry>
        </mxCell>
        <mxCell id="ydUf7Sg9tbZ3Hj5Wce_S-52" value="" style="endArrow=none;html=1;rounded=0;" edge="1" parent="1">
          <mxGeometry width="50" height="50" relative="1" as="geometry">
            <mxPoint x="150" y="310" as="sourcePoint" />
            <mxPoint x="149.5" y="230" as="targetPoint" />
          </mxGeometry>
        </mxCell>
        <mxCell id="ydUf7Sg9tbZ3Hj5Wce_S-55" value="" style="strokeWidth=1;html=1;shape=mxgraph.flowchart.annotation_1;align=left;pointerEvents=1;rotation=-90;" vertex="1" parent="1">
          <mxGeometry x="210" y="470" width="20" height="100" as="geometry" />
        </mxCell>
        <mxCell id="ydUf7Sg9tbZ3Hj5Wce_S-56" value="" style="endArrow=none;html=1;rounded=0;" edge="1" parent="1">
          <mxGeometry width="50" height="50" relative="1" as="geometry">
            <mxPoint x="220" y="560" as="sourcePoint" />
            <mxPoint x="219.5" y="530" as="targetPoint" />
          </mxGeometry>
        </mxCell>
        <mxCell id="ydUf7Sg9tbZ3Hj5Wce_S-57" value="" style="endArrow=none;html=1;rounded=0;" edge="1" parent="1">
          <mxGeometry width="50" height="50" relative="1" as="geometry">
            <mxPoint x="220" y="560" as="sourcePoint" />
            <mxPoint x="430" y="560" as="targetPoint" />
          </mxGeometry>
        </mxCell>
        <mxCell id="ydUf7Sg9tbZ3Hj5Wce_S-58" value="" style="endArrow=none;html=1;rounded=0;" edge="1" parent="1">
          <mxGeometry width="50" height="50" relative="1" as="geometry">
            <mxPoint x="430" y="560" as="sourcePoint" />
            <mxPoint x="430" y="250" as="targetPoint" />
          </mxGeometry>
        </mxCell>
        <mxCell id="ydUf7Sg9tbZ3Hj5Wce_S-59" value="" style="endArrow=classic;html=1;rounded=0;entryX=0;entryY=0.5;entryDx=0;entryDy=0;" edge="1" parent="1">
          <mxGeometry width="50" height="50" relative="1" as="geometry">
            <mxPoint x="430" y="250" as="sourcePoint" />
            <mxPoint x="490" y="250" as="targetPoint" />
          </mxGeometry>
        </mxCell>
        <mxCell id="ydUf7Sg9tbZ3Hj5Wce_S-60" value="" style="endArrow=none;html=1;rounded=0;" edge="1" parent="1">
          <mxGeometry width="50" height="50" relative="1" as="geometry">
            <mxPoint x="360" y="349.5" as="sourcePoint" />
            <mxPoint x="410" y="350" as="targetPoint" />
          </mxGeometry>
        </mxCell>
        <mxCell id="ydUf7Sg9tbZ3Hj5Wce_S-61" value="" style="endArrow=none;html=1;rounded=0;" edge="1" parent="1">
          <mxGeometry width="50" height="50" relative="1" as="geometry">
            <mxPoint x="410" y="350" as="sourcePoint" />
            <mxPoint x="410" y="210" as="targetPoint" />
          </mxGeometry>
        </mxCell>
        <mxCell id="ydUf7Sg9tbZ3Hj5Wce_S-62" value="" style="endArrow=classic;html=1;rounded=0;entryX=-0.006;entryY=0.137;entryDx=0;entryDy=0;entryPerimeter=0;" edge="1" parent="1" target="ydUf7Sg9tbZ3Hj5Wce_S-11">
          <mxGeometry width="50" height="50" relative="1" as="geometry">
            <mxPoint x="410" y="210" as="sourcePoint" />
            <mxPoint x="460" y="160" as="targetPoint" />
          </mxGeometry>
        </mxCell>
        <mxCell id="ydUf7Sg9tbZ3Hj5Wce_S-65" value="" style="strokeWidth=1;html=1;shape=mxgraph.flowchart.annotation_1;align=left;pointerEvents=1;rotation=0;" vertex="1" parent="1">
          <mxGeometry x="650" y="338" width="20" height="100" as="geometry" />
        </mxCell>
        <mxCell id="ydUf7Sg9tbZ3Hj5Wce_S-66" style="edgeStyle=orthogonalEdgeStyle;rounded=0;orthogonalLoop=1;jettySize=auto;html=1;exitX=0;exitY=0.5;exitDx=0;exitDy=0;exitPerimeter=0;entryX=1;entryY=0.5;entryDx=0;entryDy=0;entryPerimeter=0;" edge="1" parent="1" source="ydUf7Sg9tbZ3Hj5Wce_S-65" target="ydUf7Sg9tbZ3Hj5Wce_S-65">
          <mxGeometry relative="1" as="geometry" />
        </mxCell>
        <mxCell id="ydUf7Sg9tbZ3Hj5Wce_S-67" style="edgeStyle=orthogonalEdgeStyle;rounded=0;orthogonalLoop=1;jettySize=auto;html=1;exitX=1;exitY=0.5;exitDx=0;exitDy=0;exitPerimeter=0;entryX=0;entryY=0.22;entryDx=0;entryDy=0;entryPerimeter=0;" edge="1" parent="1" source="ydUf7Sg9tbZ3Hj5Wce_S-14" target="ydUf7Sg9tbZ3Hj5Wce_S-65">
          <mxGeometry relative="1" as="geometry" />
        </mxCell>
        <mxCell id="ydUf7Sg9tbZ3Hj5Wce_S-69" value="" style="strokeWidth=1;html=1;shape=mxgraph.flowchart.annotation_1;align=left;pointerEvents=1;rotation=90;" vertex="1" parent="1">
          <mxGeometry x="618.75" y="443.75" width="22.5" height="100" as="geometry" />
        </mxCell>
        <mxCell id="ydUf7Sg9tbZ3Hj5Wce_S-70" style="edgeStyle=orthogonalEdgeStyle;rounded=0;orthogonalLoop=1;jettySize=auto;html=1;exitX=0;exitY=0.75;exitDx=0;exitDy=0;entryX=-0.065;entryY=0.384;entryDx=0;entryDy=0;entryPerimeter=0;" edge="1" parent="1" source="ydUf7Sg9tbZ3Hj5Wce_S-20" target="ydUf7Sg9tbZ3Hj5Wce_S-69">
          <mxGeometry relative="1" as="geometry" />
        </mxCell>
        <mxCell id="ydUf7Sg9tbZ3Hj5Wce_S-71" value="" style="strokeWidth=1;html=1;shape=mxgraph.flowchart.annotation_1;align=left;pointerEvents=1;rotation=0;" vertex="1" parent="1">
          <mxGeometry x="807.5" y="410" width="22.5" height="110" as="geometry" />
        </mxCell>
        <mxCell id="ydUf7Sg9tbZ3Hj5Wce_S-72" style="edgeStyle=orthogonalEdgeStyle;rounded=0;orthogonalLoop=1;jettySize=auto;html=1;exitX=1;exitY=0.5;exitDx=0;exitDy=0;entryX=0.032;entryY=0.661;entryDx=0;entryDy=0;entryPerimeter=0;" edge="1" parent="1" source="ydUf7Sg9tbZ3Hj5Wce_S-22" target="ydUf7Sg9tbZ3Hj5Wce_S-71">
          <mxGeometry relative="1" as="geometry" />
        </mxCell>
        <mxCell id="ydUf7Sg9tbZ3Hj5Wce_S-73" value="" style="endArrow=classic;html=1;rounded=0;" edge="1" parent="1">
          <mxGeometry width="50" height="50" relative="1" as="geometry">
            <mxPoint x="810" y="443.5" as="sourcePoint" />
            <mxPoint x="830" y="443.5" as="targetPoint" />
          </mxGeometry>
        </mxCell>
        <mxCell id="ydUf7Sg9tbZ3Hj5Wce_S-75" value="" style="endArrow=classic;html=1;rounded=0;" edge="1" parent="1">
          <mxGeometry width="50" height="50" relative="1" as="geometry">
            <mxPoint x="810" y="476.5" as="sourcePoint" />
            <mxPoint x="830" y="476.5" as="targetPoint" />
          </mxGeometry>
        </mxCell>
      </root>
    </mxGraphModel>
  </diagram>
</mxfile>
